# 3ds Max Wavefront OBJ Exporter v0.97b - (c)2007 guruware
# File Created: 08.04.2013 14:45:39

mtllib HSM0032.mtl

#
# object vases_LT_L05_1__vases_LT_L05_1__lowpoly
#

v  -5.3145 -0.0000 17.8236
v  -5.7335 -0.0000 0.0054
v  -4.6385 -3.3701 0.0054
v  -4.2995 -3.1238 17.8236
v  -1.7718 -5.4529 0.0054
v  -1.6423 -5.0544 17.8236
v  1.7718 -5.4529 0.0054
v  1.6423 -5.0544 17.8236
v  4.6385 -3.3701 0.0054
v  4.2995 -3.1238 17.8236
v  5.7335 -0.0000 0.0054
v  5.3145 -0.0000 17.8236
v  -1.2794 3.9377 1.4119
v  3.3496 -2.4336 1.4119
v  3.3496 2.4336 1.4119
v  1.2794 3.9377 1.4119
v  -4.1403 -0.0000 1.4119
v  -3.3496 2.4336 1.4119
v  -1.2794 -3.9377 1.4119
v  -3.3496 -2.4336 1.4119
v  1.2794 -3.9377 1.4119
v  4.1403 -0.0000 1.4119
v  -4.9401 -3.5892 35.5946
v  -6.1063 -0.0000 35.5946
v  -1.8869 -5.8074 35.5946
v  1.8869 -5.8074 35.5946
v  4.9401 -3.5892 35.5946
v  6.1063 -0.0000 35.5946
v  -4.0279 -2.9265 35.8665
v  -3.9549 -2.8734 15.5875
v  -4.8885 -0.0000 15.5875
v  -4.9788 -0.0000 35.8665
v  -1.5385 -4.7351 35.8665
v  -1.5106 -4.6493 15.5875
v  1.5385 -4.7351 35.8665
v  1.5106 -4.6493 15.5875
v  3.9549 -2.8734 15.5875
v  4.0279 -2.9265 35.8665
v  4.9788 -0.0000 35.8665
v  4.8885 -0.0000 15.5875
v  -4.6385 3.3701 0.0054
v  -4.2995 3.1238 17.8236
v  -1.7718 5.4529 0.0054
v  -1.6423 5.0543 17.8236
v  1.7718 5.4529 0.0054
v  1.6423 5.0543 17.8236
v  4.6385 3.3701 0.0054
v  4.2995 3.1238 17.8236
v  -4.9401 3.5892 35.5946
v  -1.8869 5.8074 35.5946
v  1.8869 5.8074 35.5946
v  4.9401 3.5892 35.5946
v  -4.0279 2.9265 35.8666
v  -3.9549 2.8734 15.5875
v  -1.5385 4.7351 35.8665
v  -1.5106 4.6493 15.5875
v  1.5385 4.7351 35.8665
v  1.5106 4.6493 15.5875
v  3.9549 2.8734 15.5875
v  4.0279 2.9265 35.8666
# 60 vertices

vn -0.9999 0.0000 -0.0106
vn -0.9997 -0.0000 0.0235
vn -0.8088 -0.5876 0.0235
vn -0.8090 -0.5878 -0.0106
vn -0.3089 -0.9508 0.0235
vn -0.3090 -0.9510 -0.0106
vn 0.3089 -0.9508 0.0235
vn 0.3090 -0.9510 -0.0106
vn 0.8088 -0.5876 0.0235
vn 0.8090 -0.5878 -0.0106
vn 0.9997 -0.0000 0.0235
vn 0.9999 0.0000 -0.0106
vn 0.0000 -0.0000 1.0000
vn -0.8082 -0.5872 -0.0445
vn -0.9990 0.0000 -0.0445
vn -0.3087 -0.9501 -0.0445
vn 0.3087 -0.9501 -0.0445
vn 0.8082 -0.5872 -0.0445
vn 0.9990 0.0000 -0.0445
vn 0.8090 0.5878 0.0045
vn 0.8087 0.5875 0.0285
vn 0.9996 -0.0000 0.0285
vn 1.0000 -0.0000 0.0045
vn 0.3090 0.9510 0.0045
vn 0.3089 0.9507 0.0285
vn -0.3090 0.9510 0.0045
vn -0.3089 0.9507 0.0285
vn -0.8087 0.5875 0.0285
vn -0.8090 0.5878 0.0045
vn -1.0000 -0.0000 0.0045
vn -0.9996 -0.0000 0.0285
vn 0.8079 0.5870 0.0527
vn 0.9986 -0.0000 0.0527
vn 0.3086 0.9497 0.0527
vn -0.3086 0.9497 0.0527
vn -0.8079 0.5870 0.0527
vn -0.9986 -0.0000 0.0527
vn -0.8088 0.5876 0.0235
vn -0.8090 0.5878 -0.0106
vn -0.3089 0.9508 0.0235
vn -0.3090 0.9510 -0.0106
vn 0.3089 0.9508 0.0235
vn 0.3090 0.9510 -0.0106
vn 0.8088 0.5876 0.0235
vn 0.8090 0.5878 -0.0106
vn -0.8082 0.5872 -0.0445
vn -0.3087 0.9501 -0.0445
vn 0.3087 0.9501 -0.0445
vn 0.8082 0.5872 -0.0445
vn 0.0000 0.0000 -1.0000
vn 0.8090 -0.5878 0.0045
vn 0.8087 -0.5875 0.0285
vn 0.3090 -0.9510 0.0045
vn 0.3089 -0.9507 0.0285
vn -0.3090 -0.9510 0.0045
vn -0.3089 -0.9507 0.0285
vn -0.8087 -0.5875 0.0285
vn -0.8090 -0.5878 0.0045
vn 0.8079 -0.5870 0.0527
vn 0.3086 -0.9497 0.0527
vn -0.3086 -0.9497 0.0527
vn -0.8079 -0.5870 0.0527
vn -0.1897 -0.1378 0.9721
vn -0.2345 -0.0000 0.9721
vn -0.0725 -0.2230 0.9721
vn 0.0725 -0.2230 0.9721
vn 0.1897 -0.1378 0.9721
vn 0.2345 -0.0000 0.9721
vn -0.1897 0.1378 0.9721
vn -0.0725 0.2230 0.9721
vn 0.0725 0.2230 0.9721
vn 0.1897 0.1378 0.9721
# 72 vertex normals

vt 0.8605 0.2479 0.0000
vt 0.8605 0.4940 0.0000
vt 0.8140 0.4940 0.0000
vt 0.8174 0.2479 0.0000
vt 0.6776 0.7460 0.0000
vt 0.6823 0.9921 0.0000
vt 0.6427 0.9921 0.0000
vt 0.6409 0.7460 0.0000
vt 0.5938 0.9921 0.0000
vt 0.5956 0.7460 0.0000
vt 0.5542 0.9921 0.0000
vt 0.5589 0.7460 0.0000
vt 0.9036 0.7460 0.0000
vt 0.9070 0.9921 0.0000
vt 0.8605 0.9921 0.0000
vt 0.8605 0.7460 0.0000
vt 0.1673 0.5927 0.0000
vt 0.2553 0.6566 0.0000
vt 0.1881 0.6566 0.0000
vt 0.1673 0.6280 0.0000
vt 0.2217 0.5532 0.0000
vt 0.1881 0.5641 0.0000
vt 0.2761 0.5927 0.0000
vt 0.2553 0.5641 0.0000
vt 0.2761 0.6280 0.0000
vt 0.2217 0.6675 0.0000
vt 0.8109 0.0025 0.0000
vt 0.8605 0.0025 0.0000
vt 0.6443 0.5006 0.0000
vt 0.6865 0.5006 0.0000
vt 0.5922 0.5006 0.0000
vt 0.5500 0.5006 0.0000
vt 0.8605 0.5006 0.0000
vt 0.9101 0.5006 0.0000
vt 0.9975 0.0025 0.0000
vt 0.9968 0.2826 0.0000
vt 0.9571 0.2826 0.0000
vt 0.9571 0.0025 0.0000
vt 0.7275 0.4849 0.0000
vt 0.7278 0.7650 0.0000
vt 0.6941 0.7650 0.0000
vt 0.6931 0.4849 0.0000
vt 0.7700 0.4849 0.0000
vt 0.7696 0.7650 0.0000
vt 0.8033 0.7650 0.0000
vt 0.8043 0.4849 0.0000
vt 0.9571 0.5006 0.0000
vt 0.9571 0.7807 0.0000
vt 0.9174 0.7807 0.0000
vt 0.9167 0.5006 0.0000
vt 0.9907 0.4783 0.0000
vt 0.9571 0.4783 0.0000
vt 0.7310 0.9608 0.0000
vt 0.7024 0.9608 0.0000
vt 0.7664 0.9608 0.0000
vt 0.7950 0.9608 0.0000
vt 0.9571 0.9764 0.0000
vt 0.9235 0.9764 0.0000
vt 0.9070 0.4940 0.0000
vt 0.9036 0.2479 0.0000
vt 0.5938 0.4940 0.0000
vt 0.5542 0.4940 0.0000
vt 0.5589 0.2479 0.0000
vt 0.5956 0.2479 0.0000
vt 0.6427 0.4940 0.0000
vt 0.6409 0.2479 0.0000
vt 0.6823 0.4940 0.0000
vt 0.6776 0.2479 0.0000
vt 0.8140 0.9921 0.0000
vt 0.8174 0.7460 0.0000
vt 0.9101 0.0025 0.0000
vt 0.5500 0.0025 0.0000
vt 0.5922 0.0025 0.0000
vt 0.6443 0.0025 0.0000
vt 0.6865 0.0025 0.0000
vt 0.8109 0.5006 0.0000
vt 0.1243 0.8695 0.0000
vt 0.1243 0.7413 0.0000
vt 0.1531 0.7809 0.0000
vt 0.1531 0.8299 0.0000
vt 0.0313 0.8695 0.0000
vt 0.0778 0.8846 0.0000
vt 0.0025 0.7809 0.0000
vt 0.0025 0.8299 0.0000
vt 0.0778 0.7262 0.0000
vt 0.0313 0.7413 0.0000
vt 0.9167 0.0025 0.0000
vt 0.9174 0.2826 0.0000
vt 0.7700 0.0025 0.0000
vt 0.8043 0.0025 0.0000
vt 0.8033 0.2826 0.0000
vt 0.7696 0.2826 0.0000
vt 0.7275 0.0025 0.0000
vt 0.7278 0.2826 0.0000
vt 0.6941 0.2826 0.0000
vt 0.6931 0.0025 0.0000
vt 0.9975 0.5006 0.0000
vt 0.9968 0.7807 0.0000
vt 0.9235 0.4783 0.0000
vt 0.7950 0.4783 0.0000
vt 0.7664 0.4783 0.0000
vt 0.7310 0.4783 0.0000
vt 0.7024 0.4783 0.0000
vt 0.9907 0.9764 0.0000
vt 0.1323 0.5693 0.0000
vt 0.1231 0.5819 0.0000
vt 0.0827 0.5687 0.0000
vt 0.0827 0.5532 0.0000
vt 0.1629 0.6114 0.0000
vt 0.1481 0.6162 0.0000
vt 0.1629 0.6635 0.0000
vt 0.1481 0.6587 0.0000
vt 0.1323 0.7057 0.0000
vt 0.1231 0.6931 0.0000
vt 0.0827 0.7218 0.0000
vt 0.0827 0.7062 0.0000
vt 0.0331 0.5693 0.0000
vt 0.0423 0.5819 0.0000
vt 0.0025 0.6114 0.0000
vt 0.0173 0.6162 0.0000
vt 0.0025 0.6635 0.0000
vt 0.0173 0.6587 0.0000
vt 0.0331 0.7057 0.0000
vt 0.0423 0.6931 0.0000
# 124 texture coords

g vases_LT_L05_1__vases_LT_L05_1__lowpoly
usemtl _vases_LT_L05_1Vase_Baked_Mat
s 1
f 1/1/1 2/2/2 3/3/3 4/4/4 
f 4/5/4 3/6/3 5/7/5 6/8/6 
f 6/8/6 5/7/5 7/9/7 8/10/8 
f 8/10/8 7/9/7 9/11/9 10/12/10 
f 10/13/10 9/14/9 11/15/11 12/16/12 
f 13/17/13 14/18/13 15/19/13 16/20/13 
f 17/21/13 14/18/13 13/17/13 18/22/13 
f 19/23/13 14/18/13 17/21/13 20/24/13 
f 19/23/13 21/25/13 14/18/13 
f 22/26/13 15/19/13 14/18/13 
f 4/4/4 23/27/14 24/28/15 1/1/1 
f 6/8/6 25/29/16 23/30/14 4/5/4 
f 8/10/8 26/31/17 25/29/16 6/8/6 
f 10/12/10 27/32/18 26/31/17 8/10/8 
f 12/16/12 28/33/19 27/34/18 10/13/10 
s 2
f 29/35/20 30/36/21 31/37/22 32/38/23 
f 33/39/24 34/40/25 30/41/21 29/42/20 
f 35/43/26 36/44/27 34/40/25 33/39/24 
f 37/45/28 36/44/27 35/43/26 38/46/29 
f 39/47/30 40/48/31 37/49/28 38/50/29 
f 30/36/21 20/51/32 17/52/33 31/37/22 
f 34/40/25 19/53/34 20/54/32 30/41/21 
f 36/44/27 21/55/35 19/53/34 34/40/25 
f 37/45/28 14/56/36 21/55/35 36/44/27 
f 40/48/31 22/57/37 14/58/36 37/49/28 
s 1
f 41/59/38 2/2/2 1/1/1 42/60/39 
f 43/61/40 41/62/38 42/63/39 44/64/41 
f 45/65/42 43/61/40 44/64/41 46/66/43 
f 47/67/44 45/65/42 46/66/43 48/68/45 
f 11/15/11 47/69/44 48/70/45 12/16/12 
f 42/60/39 1/1/1 24/28/15 49/71/46 
f 44/64/41 42/63/39 49/72/46 50/73/47 
f 46/66/43 44/64/41 50/73/47 51/74/48 
f 52/75/49 48/68/45 46/66/43 51/74/48 
f 12/16/12 48/70/45 52/76/49 28/33/19 
s 2
f 47/77/50 41/78/50 43/79/50 45/80/50 
f 9/81/50 41/78/50 47/77/50 11/82/50 
f 5/83/50 41/78/50 9/81/50 7/84/50 
f 2/85/50 41/78/50 5/83/50 3/86/50 
f 53/87/51 32/38/23 31/37/22 54/88/52 
f 55/89/53 53/90/51 54/91/52 56/92/54 
f 57/93/55 55/89/53 56/92/54 58/94/56 
f 59/95/57 60/96/58 57/93/55 58/94/56 
f 39/47/30 60/97/58 59/98/57 40/48/31 
f 17/52/33 18/99/59 54/88/52 31/37/22 
f 18/100/59 13/101/60 56/92/54 54/91/52 
f 13/101/60 16/102/61 58/94/56 56/92/54 
f 16/102/61 15/103/62 59/95/57 58/94/56 
f 15/104/62 22/57/37 40/48/31 59/98/57 
s 4
f 23/105/63 29/106/63 32/107/64 24/108/64 
f 25/109/65 33/110/65 29/106/63 23/105/63 
f 26/111/66 35/112/66 33/110/65 25/109/65 
f 27/113/67 38/114/67 35/112/66 26/111/66 
f 28/115/68 39/116/68 38/114/67 27/113/67 
f 49/117/69 24/108/64 32/107/64 53/118/69 
f 50/119/70 49/117/69 53/118/69 55/120/70 
f 51/121/71 50/119/70 55/120/70 57/122/71 
f 52/123/72 51/121/71 57/122/71 60/124/72 
f 28/115/68 52/123/72 60/124/72 39/116/68 
# 57 polygons - 2 triangles

